<?xml version="1.0" encoding="utf-8"?>
<!-- Generator: Adobe Illustrator 19.0.0, SVG Export Plug-In . SVG Version: 6.00 Build 0)  -->
<svg version="1.1" id="Layer_1" xmlns="http://www.w3.org/2000/svg" xmlns:xlink="http://www.w3.org/1999/xlink" x="0px" y="0px"
	 viewBox="-42.3 -40.4 155.8 151.4" style="enable-background:new -42.3 -40.4 155.8 151.4;" xml:space="preserve">
<path fill="#327fc2" d="M27.6,45.6h6.7c0.7,15.2-1.6,30.7-6,37.1c-5.2,7.7-11.3-0.4-13.6-18.2c-2.3-17.7,0-38.3,5.2-46c2.5-3.8,5.3-3.7,7.7-0.7
	V45.6z M-23.1,75.2C-29.6,44.1-22,7.9-6-5.6c2.5-2.1,4.9-3.5,7.4-4.3C0.7-9.9,0-9.8-0.7-9.8c-3,0.1-5.8,0.3-8.6,0.5
	c-0.8,0.1-1.7,0.1-2.5,0.2l-1,0.2c-1.5,0.2-0.8,0.1-2.1,0.3c-0.2,0-0.4,0.1-0.7,0.2c2.4-0.2,10.2-0.7,10.2-0.7
	c-1.9,0.7-3.8,1.6-5.5,2.7l-12,1.4c-0.5,0.4-1,0.7-1.5,1.2c-0.4,0.4-0.8,0.8-1.2,1.2h0.2L-14-4c-1.4,1.2-2.7,2.5-3.9,4l-10.9,1.2
	c-0.1,0.2-0.2,0.4-0.4,0.5c-0.2,0.3-0.4,0.6-0.6,0.8c-0.6,0.9-1.3,1.8-1.9,2.8h0.3l10.1-1c-1.1,1.6-2.1,3.4-3.1,5.2l-9.9,1
	c-0.7,1.5-1.3,3.1-1.9,4.8h0.1l9.3-0.8c-0.8,2-1.6,4-2.3,6.1l-9.2,0.8c-0.5,2-1,4-1.5,6h0.1l8.8-0.6c-0.5,2.2-1,4.4-1.4,6.7
	l-8.7,0.6c-0.2,1.4-0.3,2.8-0.5,4.2c-0.1,0.6-0.1,1.2-0.2,1.8c0,0.2-0.1,0.5-0.1,0.7c0,0.3,0,0.7-0.1,1l8.4-0.3
	c-0.2,1.9-0.3,3.9-0.4,5.8l-8.3,0.3h-0.1c0,0.6,0,1.2,0,1.8c0,1,0,2,0,3c0,0.7,0,1.3,0,2h0.1c0,0.9,0.1,1.9,0.1,2.8h8.3
	c0.1,1.3,0.1,2.6,0.2,3.9h-8c0,0.2,0,0.4,0.1,0.6c0.1,0.7,0.2,1.4,0.2,2.1c0.1,1.1,0.2,2.3,0.4,3.4h0.1c0.1,1,0.3,2,0.4,3l8.6,1
	c0.2,1.2,0.5,2.5,0.8,3.7l-8.7-0.9c0.1,0.3,0.2,0.6,0.2,1c0.4,1.7,0.8,3.3,1.2,4.9c0.4,1.3,0.8,2.5,1.2,3.8l8.8,1.1
	c0.3,0.8,0.5,1.5,0.8,2.3l-8.9-1.1c0.1,0.2,0.2,0.4,0.3,0.7c0.4,0.9,0.7,1.8,1.1,2.7c0.2,0.5,0.4,1,0.6,1.4h0.1
	c0.6,1.4,1.3,2.6,2,3.9l8.6,1.2c0.2,0.5,0.5,1,0.8,1.5l-8.8-1.4c0.2,0.3,0.4,0.6,0.6,0.9c0.7,1,1.3,2,2,2.9c0.1,0.2,0.2,0.3,0.3,0.5
	h0.1c0.8,1,1.6,1.8,2.4,2.7l8.2,1.4c0.4,0.4,0.7,0.9,1.1,1.2l-8.4-1.5c0.2,0.2,0.4,0.3,0.5,0.4c0.9,0.8,1.8,1.5,2.7,2.1
	c0.2,0.1,0.4,0.3,0.5,0.4c0.1,0.1,0.3,0.1,0.4,0.2c1.7,1,3.4,1.8,5.2,2.2c0.5,0.1,1.1,0.2,1.6,0.3c1.9,0.1,6.3,0.7,10.1,1.1
	C-12.2,106.6-19.2,93.7-23.1,75.2z M49.5,45.6c0.9,24.7-4.6,49.3-14.2,59.5c-1.3,1.4-3.4,3-6.1,3.8c-6.9,2-18.9,2.2-26.7,2.1
	c0,0-0.2,0-0.4,0c-8.1-4-15.4-17-19.4-35.9C-24,44-16.4,7.7-0.3-5.8C2.3-7.9,5.1-9.3,8-10h0.1c2.5,0,4.8,0,6.6,0c0.3,0,0.6,0,0.9,0
	c-1.7,0.2-2.2,0.6-2.2,0.6l14.2,2V7.1c-2.2-1-4.6,0-6.8,3.3c-6.6,9.7-9.5,35.5-6.6,57.8c2.9,22.2,10.6,32.4,17.1,22.8
	c5.3-7.8,8.3-26.6,7.6-45.3h10.6V45.6z M7.4-6.4L18.8-5c2.2-1.6,5.1-2,6.5-1.8L10.7-8.6C9.4-8,8.7-7.5,7.4-6.4z M-3,9.6l11.1,1
	C8.9,8.8,9.7,7,10.6,5.4l-11.3-1C-1.5,6-2.3,7.8-3,9.6z M-6.6,20.8l11.2,0.8c0.6-2.1,1.1-4.2,1.8-6.1l-11.3-0.8
	C-5.5,16.7-6.1,18.7-6.6,20.8z M-9.1,33.7l11.4,0.6C2.6,32,3,29.8,3.4,27.6L-8,26.9C-8.4,29.1-8.8,31.4-9.1,33.7z M-10,47.4
	l11.3,0.3c0-1.9,0.2-3.8,0.3-5.7l-11.4-0.4C-10,43.6-10.1,45.5-10,47.4z M-9.9,61.2H1.3c0-1.3-0.1-2.6-0.1-3.9H-10
	C-10,58.6-10,59.9-9.9,61.2z M-8.1,74.8c0,0.1,0,0.2,0,0.3l10.8-1c-0.2-1.1-0.3-2.3-0.5-3.4l-10.9,0.9C-8.5,72.7-8.4,73.8-8.1,74.8z
	 M5,86.1c-0.2-0.7-0.3-1.4-0.5-2.1l-10.4,1.1c0.2,0.7,0.3,1.4,0.5,2.1L5,86.1z M8.2,96.2c-0.2-0.5-0.3-0.9-0.5-1.4l-10,1.3
	c0.1,0.4,0.3,0.9,0.5,1.4L8.2,96.2z M12.5,104.4c-0.2-0.3-0.4-0.6-0.6-0.9l-9.5,1.4c0.2,0.3,0.4,0.6,0.6,0.8L12.5,104.4z M13,1.1
	c0.7-1,1.6-2,2.4-2.9c0.4-0.4,0.7-0.7,1.1-1L4.9-4c-1,1.2-2.1,2.5-3,3.9L13,1.1z M81.2-35.4h-26v17.8h26V-35.4z M108.6-21.7
	c1.9,6,4.8,16.5,4.9,24.6c0,0.7-0.1,1.4-0.1,2.1c-0.6,9.7-5.1,14.9-10.6,14.9h-0.1c-3,0-6-1.5-8-4.3c-1.9-2.7-3-6.6-3-11.7v-9.4
	c0-2.4-0.7-3.6-1.8-4.6c-0.7-0.6-2.5-1.1-3.9-1.4v30.6h2.6V25h-41v-5.9h2.7v-54.2c0-2.9,2.4-5.3,5.3-5.3h25c2.9,0,5.3,2.4,5.3,5.3
	v17.6c2.6,0.3,5.7,1.2,7.6,2.8c2.6,2.1,3.9,5.4,3.9,9v9.4c0,4.3,1,7,2,8.4c1,1.5,2.1,1.9,3.3,1.9c1.8-0.1,4.1-1.2,4.9-9.6
	c0.1-0.6,0.1-1.1,0.1-1.7c0.1-4.9-1.5-11.9-3-17.5c-0.3-1-0.6-2-0.9-3c-4.5-13.8-13.3-17.3-13.3-17.3v-5.2
	c15.5,5,20.6,16.1,20.6,16.1L108.6-21.7"/>
</svg>
