<?xml version="1.0" encoding="utf-8"?>
<!-- Generator: Adobe Illustrator 19.0.0, SVG Export Plug-In . SVG Version: 6.00 Build 0)  -->
<svg version="1.1" id="Layer_1" xmlns="http://www.w3.org/2000/svg" xmlns:xlink="http://www.w3.org/1999/xlink" x="0px" y="0px"
	 viewBox="162 -193.6 500 500" style="enable-background:new 162 -193.6 500 500;" xml:space="preserve">
<g>
	<path fill="#1b2e3f" d="M552.5-61.2L589-97.7c6.6-6.6,6.6-17.3,0-23.9c-6.6-6.6-17.3-6.6-23.9,0L528.6-85c-6.6,6.6-6.6,17.3,0,23.9
		C534.6-54.6,545.2-54.6,552.5-61.2z"/>
	<path fill="#1b2e3f" d="M644.7,38.3h-51.1c-9.3,0-17.3,8-17.3,17.3s8,17.3,17.3,17.3h51.1c9.3,0,17.3-8,17.3-17.3S654,38.3,644.7,38.3z"/>
	<path fill="#1b2e3f" d="M551.8,172.3c-6.6-6.6-17.3-6.6-23.9,0c-6.6,6.6-6.6,17.3,0,23.9l36.5,36.5c6.6,6.6,17.3,6.6,23.9,0
		c6.6-6.6,6.6-17.3,0-23.9L551.8,172.3z"/>
	<path fill="#1b2e3f" d="M411.2,220.8c-0.3,0-0.5,0-0.8,0v85.5h-1c0.6,0.1,1.2,0.1,1.8,0.1c9.3,0,17.3-8,17.3-17.3v-51.2
		C428.5,228.7,420.5,220.8,411.2,220.8z"/>
	<path fill="#1b2e3f" d="M500.1-33.3c-22.6-22.6-54.4-37.1-88.9-37.1c-0.3,0-0.5,0-0.8,0v251.9c0.3,0,0.5,0,0.8,0c34.5,0,66.3-14,88.9-37.1
		c22.6-22.6,37.1-54.4,37.1-88.8S523.3-10.7,500.1-33.3z"/>
	<path fill="#1b2e3f" d="M428.5-125.4v-51c0-9.3-8-17.3-17.3-17.3c-0.3,0-0.5,0-0.8,0v85.4c0.3,0,0.5,0,0.8,0C420.5-108.1,428.5-116.1,428.5-125.4z
		"/>
	<path fill="#1b2e3f" d="M364.7-177.5v35.6l-19.8-19.8c-6.3-6.3-16.5-6.3-22.9,0c-6.3,6.2-6.3,16.5,0,22.8l42.7,42.7v36.2l-76.7,44.1l-31.4-18.1
		l-15.6-58.3c-2.3-8.6-11.1-13.7-19.7-11.4c-8.6,2.3-13.7,11.1-11.4,19.7l7.2,27.1l-30.8-17.8c-7.7-4.5-17.6-1.9-22.1,5.9
		c-4.5,7.7-1.9,17.6,5.9,22.1l31,17.8L174-21.6c-8.6,2.3-13.7,11.1-11.4,19.7c2.3,8.6,11.1,13.7,19.7,11.4L240.6-6L272,12v88.5
		l-31.4,18.1l-58.3-15.6c-8.6-2.3-17.5,2.8-19.7,11.4c-2.3,8.6,2.8,17.5,11.4,19.7l27.2,7.2l-30.9,17.9c-14.3,8.2-8.4,30.1,8.1,30.1
		c5.8,0,5.8-0.8,39-20l-7.4,27.2c-2.7,10.3,5,20.3,15.6,20.3c7.1,0,13.7-4.8,15.5-11.9l15.6-58.3l31.4-18.1l76.7,44.2v36.2
		l-42.7,42.7c-6.3,6.2-6.3,16.5,0,22.8c6.3,6.3,16.5,6.3,22.9,0l19.8-19.8v35.6c0,8.9,7.2,16.1,16.1,16.1v-500
		C372-193.6,364.7-186.4,364.7-177.5z M304.3,30.8l44.3,25.5l-44.3,25.6V30.8z M364.7,135.4l-44.3-25.6l44.3-25.6V135.4z
		 M364.7,28.3L320.4,2.7l44.3-25.6V28.3z"/>
</g>
</svg>
