<?xml version="1.0" encoding="utf-8"?>
<!-- Generator: Adobe Illustrator 19.0.0, SVG Export Plug-In . SVG Version: 6.00 Build 0)  -->
<svg version="1.1" id="Layer_1" xmlns="http://www.w3.org/2000/svg" xmlns:xlink="http://www.w3.org/1999/xlink" x="0px" y="0px"
	 viewBox="156 -199.6 512 512" style="enable-background:new 156 -199.6 512 512;" xml:space="preserve">
<path fill="#1b2e3f" d="M475,56.4c0,6.1-1.1,11.9-2.8,17.4l58.1,33.6c6.8-15.7,10.6-32.9,10.6-51s-3.8-35.4-10.6-51l-58.1,33.6
	C473.9,44.5,475,50.3,475,56.4z M349,56.4c0-6.1,1.1-11.9,2.8-17.4L293.6,5.4C286.8,21,283,38.3,283,56.4s3.8,35.4,10.6,51
	l58.1-33.6C350.1,68.3,349,62.5,349,56.4z M515-20.4c-20.7-27.7-52-46.4-88-50.7v66.5c11.8,2.9,22.2,9,30.4,17.5L515-20.4z
	 M379,56.4c0,18.2,14.8,33,33,33s33-14.8,33-33s-14.8-33-33-33S379,38.2,379,56.4z M427,117.4v66.5c36-4.2,67.4-23,88-50.7
	l-57.7-33.3C449.2,108.4,438.8,114.5,427,117.4z M412,312.4c140.6,0,256-115.4,256-256s-115.4-256-256-256S156-84.2,156,56.4
	S271.4,312.4,412,312.4z M412-102.6c89.5,0,159,75,159,159c0,84-69.5,159-159,159c-89.6,0-159-75.2-159-159
	C253-28.9,323.5-102.6,412-102.6z M309,133.2c20.7,27.7,52,46.4,88,50.7v-66.5c-11.8-2.9-22.2-9-30.4-17.5L309,133.2z M397-4.6
	v-66.5c-36,4.2-67.4,23-88,50.7l57.7,33.3C374.8,4.4,385.2-1.7,397-4.6z"/>
</svg>
