<?xml version="1.0" encoding="utf-8"?>
<!-- Generator: Adobe Illustrator 19.0.0, SVG Export Plug-In . SVG Version: 6.00 Build 0)  -->
<svg version="1.1" id="Capa_1" xmlns="http://www.w3.org/2000/svg" xmlns:xlink="http://www.w3.org/1999/xlink" x="0px" y="0px"
	 viewBox="51 -95 302.4 302.4" style="enable-background:new 51 -95 302.4 302.4;" xml:space="preserve">
<g>
	<g>
		<g>
			<path fill="#1b2e3f" d="M255.8,2.6C242.2-11,223-19.8,202.2-19.8s-40,8.4-53.6,22.4c-13.6,13.6-22.4,32.8-22.4,53.6s8.8,40,22.4,53.6
				c13.6,13.6,32.8,22.4,53.6,22.4s40-8.4,53.6-22.4c13.6-13.6,22.4-32.8,22.4-53.6S269.8,16.2,255.8,2.6z"/>
			<path fill="#1b2e3f" d="M202.2-43.4c5.6,0,10.4-4.8,10.4-10.4v-30.8c0-5.6-4.8-10.4-10.4-10.4c-5.6,0-10.4,4.8-10.4,10.4v30.8
				C191.8-48.2,196.6-43.4,202.2-43.4z"/>
			<path fill="#1b2e3f" d="M287.4-14.2l22-22c4-4,4-10.4,0-14.4s-10.4-4-14.4,0l-22,22c-4,4-4,10.4,0,14.4C276.6-10.2,283-10.2,287.4-14.2z"/>
			<path fill="#1b2e3f" d="M343,45.8h-30.8c-5.6,0-10.4,4.8-10.4,10.4c0,5.6,4.8,10.4,10.4,10.4H343c5.6,0,10.4-4.8,10.4-10.4S348.6,45.8,343,45.8z
				"/>
			<path fill="#1b2e3f" d="M287,126.6c-4-4-10.4-4-14.4,0s-4,10.4,0,14.4l22,22c4,4,10.4,4,14.4,0s4-10.4,0-14.4L287,126.6z"/>
			<path fill="#1b2e3f" d="M202.2,155.8c-5.6,0-10.4,4.8-10.4,10.4V197c0,5.6,4.8,10.4,10.4,10.4c5.6,0,10.4-4.8,10.4-10.4v-30.8
				C212.6,160.6,207.8,155.8,202.2,155.8z"/>
			<path fill="#1b2e3f" d="M117,126.6l-22,22c-4,4-4,10.4,0,14.4s10.4,4,14.4,0l22-22c4-4,4-10.4,0-14.4C127.8,122.6,121.4,122.6,117,126.6z"/>
			<path fill="#1b2e3f" d="M102.6,56.2c0-5.6-4.8-10.4-10.4-10.4H61.4c-5.6,0-10.4,4.8-10.4,10.4s4.8,10.4,10.4,10.4h30.8
				C97.8,66.6,102.6,61.8,102.6,56.2z"/>
			<path fill="#1b2e3f" d="M117-14.2c4,4,10.4,4,14.4,0c4-4,4-10.4,0-14.4l-22-22c-4-4-10.4-4-14.4,0s-4,10.4,0,14.4L117-14.2z"/>
		</g>
	</g>
</g>
</svg>
