<?xml version="1.0" encoding="utf-8"?>
<!-- Generator: Adobe Illustrator 19.0.0, SVG Export Plug-In . SVG Version: 6.00 Build 0)  -->
<svg version="1.1" id="Layer_1" xmlns="http://www.w3.org/2000/svg" xmlns:xlink="http://www.w3.org/1999/xlink" x="0px" y="0px"
	 viewBox="-6 -4.1 119.1 121.2" style="enable-background:new -6 -4.1 119.1 121.2;" xml:space="preserve">
<path fill="#327fc2" d="M113.1,17.5v11v56.1v11l-8.2-7.4c-6.6-5.9-13.2-11.7-19.8-17.6h-9.2H71v-4.9V47.3v-4.9h4.9h9.2l19.8-17.6L113.1,17.5z
	 M68.7,37.5c-2.7-14.1-8.1-20-12.8-13.1c-5.2,7.7-7.5,28.3-5.2,46s8.4,25.9,13.6,18.2c1.9-2.9,3.5-7.5,4.5-13.1h-7.2v-38H68.7z
	 M13,81.2C6.4,50,14,13.7,30,0.2c2.5-2.1,4.9-3.5,7.4-4.3C36.7-4.1,36-4,35.3-4c-3,0.1-5.8,0.3-8.6,0.5c-0.8,0.1-1.7,0.1-2.5,0.2
	l-1,0.2c-1.5,0.2-0.8,0.1-2.1,0.3c-0.2,0-0.4,0.1-0.7,0.2c2.4-0.2,10.2-0.7,10.2-0.7c-1.9,0.7-3.8,1.6-5.5,2.7l-12,1.4
	c-0.5,0.4-1,0.7-1.5,1.2c-0.4,0.4-0.8,0.8-1.2,1.2h0.2L22,1.9c-1.4,1.2-2.7,2.5-3.9,4L7.2,7.1C7.1,7.3,7,7.5,6.8,7.6
	C6.6,7.9,6.4,8.2,6.2,8.4c-0.6,0.9-1.3,1.8-1.9,2.8h0.3l10.1-1c-1.1,1.6-2.1,3.4-3.1,5.2l-9.9,1c-0.7,1.5-1.3,3.1-1.9,4.8h0.1
	l9.3-0.8c-0.8,2-1.6,4-2.3,6.1l-9.2,0.8c-0.5,2-1.1,4-1.5,6h0.1l8.8-0.6c-0.5,2.2-1,4.4-1.4,6.7L-5,40c-0.2,1.4-0.3,2.8-0.5,4.2
	c-0.1,0.6-0.1,1.2-0.2,1.8c0,0.2-0.1,0.5-0.1,0.7c0,0.3,0,0.7-0.1,1l8.4-0.3c-0.2,1.9-0.3,3.9-0.4,5.8l-8,0.4H-6c0,0.6,0,1.2,0,1.8
	c0,1,0,2,0,3c0,0.7,0,1.3,0,2h0.1c0,0.9,0.1,1.9,0.1,2.8h8.3c0.1,1.3,0.1,2.6,0.2,3.9h-8.3c0,0.2,0,0.4,0.1,0.6
	c0.1,0.7,0.2,1.4,0.2,2.1c0.1,1.1,0.2,2.3,0.4,3.4h0.1c0.1,1,0.3,2,0.4,3l8.6,1c0.2,1.2,0.5,2.5,0.8,3.7L-3.7,80v0
	c0.1,0.3,0.2,0.6,0.2,1c0.4,1.7,0.7,3.3,1.2,4.9c0.3,1.2,0.7,2.4,1.1,3.7l8.8,1.1c0.3,0.8,0.5,1.5,0.8,2.3l-8.9-1.1
	c0.1,0.2,0.2,0.4,0.3,0.7c0.4,0.9,0.7,1.8,1.1,2.7c0.2,0.5,0.4,1,0.6,1.4h0.1c0.6,1.4,1.3,2.6,2,3.9l8.6,1.2c0.2,0.5,0.5,1,0.8,1.5
	L4.2,102c0.2,0.3,0.4,0.6,0.6,0.9c0.7,1,1.3,2,2,2.9c0.1,0.2,0.2,0.3,0.3,0.5h0.1c0.8,1,1.6,1.8,2.4,2.7l8.2,1.4
	c0.4,0.4,0.7,0.9,1.1,1.2l-8.4-1.5c0.2,0.2,0.4,0.3,0.5,0.4c0.9,0.8,1.8,1.5,2.7,2.1c0.2,0.1,0.4,0.3,0.5,0.4
	c0.1,0.1,0.3,0.1,0.4,0.2c1.7,1,3.4,1.8,5.2,2.2c0.5,0.1,1.1,0.2,1.6,0.3c1.9,0.1,6.3,0.7,10.1,1.1C23.9,112.6,17,99.7,13,81.2z
	 M83.7,79.9c-2.3,13.5-6.6,25-12.5,31.3c-1.3,1.4-3.4,3-6.1,3.8c-6.9,2-18.9,2.2-26.7,2.1c0,0-0.1,0-0.4,0c-8.1-4-15.4-17-19.4-35.9
	c-6.7-31.2,0.9-67.5,17-81C38.2-2,41-3.4,44-4.1h0.1c2.5,0,4.8,0,6.6,0c0.3,0,0.6,0,0.9,0c-1.7,0.2-2.2,0.6-2.2,0.6l16,2.2
	c0.2,0.2,3.7,1.7,8.2,7.7c4.2,5.8,7.8,14.8,10,26.8l-4.8,4.3h-5c-3-21.1-10.5-30.8-16.9-21.3c-6.6,9.7-9.5,35.5-6.6,57.8
	c2.9,22.2,10.6,32.5,17.1,22.8c2.9-4.4,5.2-12.1,6.5-21.3h5C80.4,77,82,78.4,83.7,79.9z M43.4-0.6l11.4,1.4c2.2-1.6,5.1-2,6.5-1.8
	L46.7-2.8C45.4-2.2,44.7-1.7,43.4-0.6z M33,15.5l11.1,1c0.8-1.8,1.6-3.6,2.5-5.2l-11.3-1C34.5,11.9,33.7,13.7,33,15.5z M29.4,26.6
	l11.2,0.8c0.6-2.1,1.1-4.2,1.8-6.1l-11.3-0.8C30.5,22.5,29.9,24.5,29.4,26.6z M26.9,39.5l11.4,0.6c0.3-2.3,0.7-4.5,1.1-6.7L28,32.8
	C27.6,35,27.2,37.2,26.9,39.5z M26,53.3l11.3,0.3c0-1.9,0.2-3.8,0.3-5.7l-11.4-0.4C26,49.4,25.9,51.3,26,53.3z M26.1,67.1h11.2
	c0-1.3-0.1-2.6-0.1-3.9H26C26,64.5,26,65.8,26.1,67.1z M27.9,80.7c0,0.1,0,0.2,0,0.3l10.8-1c-0.2-1.1-0.3-2.3-0.5-3.4l-10.9,0.9
	C27.5,78.5,27.6,79.6,27.9,80.7z M41,91.9c-0.2-0.7-0.3-1.4-0.5-2.1l-10.4,1.1c0.2,0.7,0.3,1.4,0.5,2.1L41,91.9z M44.2,102
	c-0.2-0.5-0.3-0.9-0.5-1.4l-10,1.3c0.1,0.5,0.3,0.9,0.5,1.4L44.2,102z M48.5,110.3c-0.2-0.3-0.4-0.6-0.6-0.9l-9.5,1.4
	c0.2,0.2,0.4,0.5,0.6,0.8L48.5,110.3z M49,7c0.7-1,1.6-2,2.4-2.9c0.4-0.3,0.7-0.7,1.1-1L40.9,1.9c-1,1.2-2.1,2.5-3,3.9L49,7z"/>
</svg>
